<svg xmlns="http://www.w3.org/2000/svg" viewBox="0 0 118.59 68.09"><title>Colorful_BG_Corner_2</title><polygon points="118.59 18.33 118.59 0 105.38 0 102.61 51.36 118.59 18.33" style="fill:#009877"/><polygon points="118.59 45.05 118.59 18.33 102.62 51.37 118.59 45.05" style="fill:#00c4b3"/><polyline points="102.62 51.37 118.59 18.33 118.59 18.32" style="fill:none;stroke:#4ab9b3;stroke-linecap:round;stroke-linejoin:round;stroke-width:0px"/><polygon points="105.38 0 86.03 0 102.61 51.36 105.38 0" style="fill:#006580"/><polyline points="0 0 102.61 51.36 102.61 51.37 102.62 51.37" style="fill:none;stroke:#50163f;stroke-linecap:round;stroke-linejoin:round;stroke-width:0px"/><polygon points="102.61 51.37 102.61 51.36 86.03 0 0 0 102.61 51.37" style="fill:#622650"/><polygon points="114.5 68.09 102.61 51.38 102.61 51.37 102.62 51.37 118.59 45.05 118.59 68.09 114.52 68.09 114.5 68.09" style="fill:#ffa400"/><polygon points="114.5 68.09 102.61 51.38 101.22 68.09 114.5 68.09" style="fill:#ff5b35"/><line x1="102.62" y1="51.37" x2="114.52" y2="68.09" style="fill:none;stroke:#ea5740;stroke-linecap:round;stroke-linejoin:round;stroke-width:0px"/><polygon points="102.61 51.38 102.61 51.37 85.08 68.09 101.22 68.09 102.61 51.38" style="fill:#b52372"/></svg>